<svg width="50" height="50" viewBox="0 0 50 50" fill="none" xmlns="http://www.w3.org/2000/svg">
<g clip-path="url(#clip0_31_1442)">
<path d="M25 50C38.8393 50 50 38.8393 50 25C50 11.1607 38.8393 0 25 0C11.1607 0 0 11.1607 0 25C0 38.8393 11.1607 50 25 50Z" fill="#0098EA"/>
<path d="M33.5716 13.9285H16.4287C13.3037 13.9285 11.3395 17.3213 12.8573 20.0892L23.393 38.3928C24.1073 39.5535 25.8038 39.5535 26.518 38.3928L37.0538 20.0892C38.6609 17.3213 36.6966 13.9285 33.5716 13.9285ZM23.4823 32.857L21.1609 28.3928L15.6252 18.482C15.268 17.857 15.7145 17.0535 16.518 17.0535H23.4823V32.857ZM34.3752 18.482L28.8395 28.3928L26.518 32.857V17.0535H33.4823C34.2859 17.0535 34.7323 17.857 34.3752 18.482Z" fill="white"/>
</g>
<defs>
<clipPath id="clip0_31_1442">
<rect width="50" height="50" fill="white"/>
</clipPath>
</defs>
</svg>
